<svg xmlns="http://www.w3.org/2000/svg" width="720" height="720" viewBox="0 0 720 720" fill="none">
  <defs>
    <radialGradient id="sigil-core" cx="0" cy="0" r="1" gradientUnits="userSpaceOnUse" gradientTransform="translate(360 360) rotate(90) scale(236)">
      <stop stop-color="#F0DB92" stop-opacity="0.34"/>
      <stop offset="0.48" stop-color="#9FB6C8" stop-opacity="0.16"/>
      <stop offset="1" stop-color="#9FB6C8" stop-opacity="0"/>
    </radialGradient>
  </defs>
  <rect width="720" height="720" fill="url(#sigil-core)"/>
  <circle cx="360" cy="360" r="254" stroke="#CFAE64" stroke-opacity="0.18" stroke-width="2"/>
  <circle cx="360" cy="360" r="210" stroke="#7F99A8" stroke-opacity="0.14" stroke-width="1.5"/>
  <path d="M360 104V208" stroke="#E7D18C" stroke-opacity="0.3" stroke-width="3" stroke-linecap="round"/>
  <path d="M360 512V616" stroke="#E7D18C" stroke-opacity="0.2" stroke-width="3" stroke-linecap="round"/>
  <path d="M104 360H208" stroke="#E7D18C" stroke-opacity="0.16" stroke-width="3" stroke-linecap="round"/>
  <path d="M512 360H616" stroke="#E7D18C" stroke-opacity="0.16" stroke-width="3" stroke-linecap="round"/>
  <path d="M180 180L254 254" stroke="#9FB6C8" stroke-opacity="0.18" stroke-width="2.5" stroke-linecap="round"/>
  <path d="M466 466L540 540" stroke="#9FB6C8" stroke-opacity="0.16" stroke-width="2.5" stroke-linecap="round"/>
  <path d="M540 180L466 254" stroke="#9FB6C8" stroke-opacity="0.18" stroke-width="2.5" stroke-linecap="round"/>
  <path d="M254 466L180 540" stroke="#9FB6C8" stroke-opacity="0.16" stroke-width="2.5" stroke-linecap="round"/>
  <path d="M360 188L403 274L360 446L317 274L360 188Z" fill="#D6BC72" fill-opacity="0.14" stroke="#EEDB9C" stroke-opacity="0.24" stroke-width="2"/>
  <path d="M232 360L318 317L403 360L318 403L232 360Z" fill="#8EA4B5" fill-opacity="0.08" stroke="#AABBC7" stroke-opacity="0.18" stroke-width="2"/>
  <path d="M360 240L480 360L360 480L240 360L360 240Z" stroke="#E7D18C" stroke-opacity="0.2" stroke-width="3"/>
  <path d="M302 302L360 266L418 302L454 360L418 418L360 454L302 418L266 360L302 302Z" stroke="#8297A8" stroke-opacity="0.18" stroke-width="2"/>
  <circle cx="360" cy="360" r="22" fill="#F0DB92" fill-opacity="0.16" stroke="#F0DB92" stroke-opacity="0.26" stroke-width="2"/>
</svg>
