<svg xmlns="http://www.w3.org/2000/svg" width="800" height="520" viewBox="0 0 800 520" fill="none">
  <defs>
    <linearGradient id="arma-bg" x1="400" y1="0" x2="400" y2="520" gradientUnits="userSpaceOnUse">
      <stop stop-color="#13222C"/>
      <stop offset="0.54" stop-color="#224355"/>
      <stop offset="1" stop-color="#0A141B"/>
    </linearGradient>
    <radialGradient id="arma-sky" cx="0" cy="0" r="1" gradientUnits="userSpaceOnUse" gradientTransform="translate(398 112) rotate(90) scale(228 336)">
      <stop stop-color="#E3F8FF" stop-opacity="0.28"/>
      <stop offset="1" stop-color="#E3F8FF" stop-opacity="0"/>
    </radialGradient>
  </defs>
  <rect width="800" height="520" fill="url(#arma-bg)"/>
  <rect width="800" height="520" fill="url(#arma-sky)"/>
  <path d="M120 298C206 143 286 84 400 71C344 136 313 213 297 308L120 298Z" fill="#E7F7FF" fill-opacity="0.22"/>
  <path d="M680 298C594 143 514 84 400 71C456 136 487 213 503 308L680 298Z" fill="#E7F7FF" fill-opacity="0.22"/>
  <path d="M220 390L330 324L296 475L220 390Z" fill="#B7E1F3" fill-opacity="0.22"/>
  <path d="M580 390L470 324L504 475L580 390Z" fill="#B7E1F3" fill-opacity="0.22"/>
  <path d="M400 72L443 158L400 438L357 158L400 72Z" fill="#CBE8F7" fill-opacity="0.74"/>
  <path d="M346 176L400 126L454 176" stroke="#FFE19A" stroke-opacity="0.78" stroke-width="6" stroke-linecap="round" stroke-linejoin="round"/>
  <path d="M122 84L678 84" stroke="#E5F6FF" stroke-opacity="0.12" stroke-width="2"/>
</svg>
